{"title":"Rocky Balboa (Hexalogia) Dual pt br","uid":11497530,"size":4569794560,"categoryP":"video","categoryS":"movies","magnet":"?xt=urn:btih:35e3204c3788fca71d0ef3fba0e75f648dd1dc66&amp;dn=Rocky+Balboa+%28Hexalogia%29+Dual+pt+br&amp;tr=udp%3A%2F%2Ftracker.openbittorrent.com%3A80&amp;tr=udp%3A%2F%2Fopen.demonii.com%3A1337&amp;tr=udp%3A%2F%2Ftracker.coppersurfer.tk%3A6969&amp;tr=udp%3A%2F%2Fexodus.desync.com%3A6969","seeders":1,"leechers":0,"uploader":"frankcure","files":6,"time":1416310887,"description":"Hexalogia Rocky Balboa Dublada\n\n\nGeneral\n\nFormat                                   : AVI\nFormat/Info                              : Audio Video Interleave\nFile size                                : 700 MiB\nDuration                                 : 1h 59mn\nOverall bit rate                         : 821 Kbps\nWriting application                      : VirtualDubMod 1.5.4.1 (build 2117/release)\nWriting library                          : VirtualDubMod build 2117/release\n\nVideo\nID                                       : 0\nFormat                                   : MPEG-4 Visual\nFormat profile                           : Advanced Simple@L5\nFormat settings, BVOP                    : 1\nFormat settings, QPel                    : No\nFormat settings, GMC                     : No warppoints\nFormat settings, Matrix                  : Default (H.263)\nMuxing mode                              : Packed bitstream\nCodec ID                                 : XVID\nCodec ID/Hint                            : XviD\nDuration                                 : 1h 59mn\nBit rate                                 : 551 Kbps\nWidth                                    : 528 pixels\nHeight                                   : 256 pixels\nDisplay aspect ratio                     : 2.063\nFrame rate                               : 23.976 fps\nColor space                              : YUV\nChroma subsampling                       : 4:2:0\nBit depth                                : 8 bits\nScan type                                : Progressive\nCompression mode                         : Lossy\nBits/(Pixel*Frame)                       : 0.170\nStream size                              : 470 MiB (67%)\nWriting library                          : XviD 1.0.1 (UTC 2004-06-05)\n\nAudio #1\nID                                       : 1\nFormat                                   : MPEG Audio\nFormat version                           : Version 1\nFormat profile                           : Layer 3\nMode                                     : Joint stereo\nCodec ID                                 : 55\nCodec ID/Hint                            : MP3\nDuration                                 : 1h 59mn\nBit rate mode                            : Constant\nBit rate                                 : 128 Kbps\nChannel(s)                               : 2 channels\nSampling rate                            : 48.0 KHz\nCompression mode                         : Lossy\nStream size                              : 109 MiB (16%)\nAlignment                                : Aligned on interleaves\nInterleave, duration                     : 42 ms (1.00 video frame)\nInterleave, preload duration             : 504 ms\nWriting library                          : LAME3.95 \nEncoding settings                        : -m j -V 4 -q 2 -lowpass 17.5 -b 128\n\nAudio #2\nID                                       : 2\nFormat                                   : MPEG Audio\nFormat version                           : Version 1\nFormat profile                           : Layer 3\nMode                                     : Joint stereo\nMode extension                           : MS Stereo\nCodec ID                                 : 55\nCodec ID/Hint                            : MP3\nDuration                                 : 1h 59mn\nBit rate mode                            : Constant\nBit rate                                 : 128 Kbps\nChannel(s)                               : 2 channels\nSampling rate                            : 48.0 KHz\nCompression mode                         : Lossy\nStream size                              : 109 MiB (16%)\nAlignment                                : Aligned on interleaves\nInterleave, duration                     : 42 ms (1.00 video frame)\nInterleave, preload duration             : 504 ms\nWriting library                          : LAME3.95 \nEncoding settings                        : -m j -V 4 -q 2 -lowpass 17.5 -b 128","torrent":{"xt":"urn:btih:35e3204c3788fca71d0ef3fba0e75f648dd1dc66","amp;dn":"Rocky+Balboa+%28Hexalogia%29+Dual+pt+br","amp;tr":["udp%3A%2F%2Ftracker.openbittorrent.com%3A80","udp%3A%2F%2Fopen.demonii.com%3A1337","udp%3A%2F%2Ftracker.coppersurfer.tk%3A6969","udp%3A%2F%2Fexodus.desync.com%3A6969"],"infoHash":"35e3204c3788fca71d0ef3fba0e75f648dd1dc66","infoHashBuffer":{"type":"Buffer","data":[53,227,32,76,55,136,252,167,29,14,243,251,160,231,95,100,141,209,220,102]},"announce":[],"urlList":[]}}